<svg xmlns="http://www.w3.org/2000/svg" viewBox="0 0 500 500"><g id="freepik--background-complete--inject-258"><path d="M99.85,125.1l-3.64-6.32a4.76,4.76,0,0,0-4.41-2.32c-.55,0-1.1.05-1.67,0s-1.1,0-1.65,0a4.76,4.76,0,0,0-4.43,2.32l-3.64,6.3-20-11.57,3.67-6.33a4.72,4.72,0,0,0-.21-5c-.59-.91-1.14-1.87-1.64-2.84A4.81,4.81,0,0,0,58,96.67H50.69l0-23.13H58A4.65,4.65,0,0,0,62.16,71,30.77,30.77,0,0,1,64,67.91a4.65,4.65,0,0,0,.12-4.9l-3.64-6.3,20-11.54,3.64,6.33a4.65,4.65,0,0,0,4.32,2.33c.58,0,1.14,0,1.75,0s1.17,0,1.75,0a4.64,4.64,0,0,0,4.31-2.31l3.66-6.33,20,11.57-3.67,6.35a4.73,4.73,0,0,0,.21,5,29.68,29.68,0,0,1,1.64,2.83,4.81,4.81,0,0,0,4.25,2.69h7.28l0,23.13h-7.28a4.81,4.81,0,0,0-4.25,2.69c-.5,1-1,1.91-1.64,2.82a4.72,4.72,0,0,0-.22,5l3.66,6.36Zm-7.79-9.65a5.72,5.72,0,0,1,5,2.83l3.14,5.45,18.31-10.54-3.17-5.49a5.72,5.72,0,0,1,.25-6c.57-.88,1.11-1.81,1.59-2.74a5.8,5.8,0,0,1,5.14-3.23h6.28l0-21.13h-6.28a5.8,5.8,0,0,1-5.14-3.23,28.71,28.71,0,0,0-1.59-2.74,5.72,5.72,0,0,1-.23-6l3.17-5.49L100.27,46.55,97.1,52a5.6,5.6,0,0,1-5.23,2.81c-.57,0-1.13,0-1.72,0s-1.11,0-1.66,0A5.68,5.68,0,0,1,83.24,52L80.1,46.54,61.8,57.08l3.13,5.43a5.64,5.64,0,0,1-.14,5.95,28.88,28.88,0,0,0-1.74,3A5.64,5.64,0,0,1,58,74.55H51.7V95.67H58a5.81,5.81,0,0,1,5.14,3.24q.74,1.43,1.59,2.76a5.72,5.72,0,0,1,.23,6l-3.16,5.47,18.29,10.57,3.14-5.44a5.76,5.76,0,0,1,5.34-2.82c.54,0,1.12.05,1.63,0s1.07,0,1.59,0Zm-1.91-11.7a19.94,19.94,0,0,1-2.43-.15,18.74,18.74,0,0,1-16-16h0a18.63,18.63,0,1,1,18.47,16.19ZM72.67,87.43a17.65,17.65,0,1,0,5-14.76,17.74,17.74,0,0,0-5,14.76Z" style="fill:#ebebeb"></path><path d="M448.81,339.78l-5.51-9.54-2.92,1.68a2.62,2.62,0,0,1-2.75-.09,14.33,14.33,0,0,0-1.43-.82,2.63,2.63,0,0,1-1.45-2.33V325.3h-11v3.38a2.63,2.63,0,0,1-1.45,2.33,15.55,15.55,0,0,0-1.43.82,2.6,2.6,0,0,1-2.74.09l-2.93-1.68-5.5,9.54,2.93,1.69a2.63,2.63,0,0,1,1.28,2.43c0,.27,0,.54,0,.82s0,.54,0,.81a2.63,2.63,0,0,1-1.27,2.42l-2.94,1.7,5.5,9.54,2.93-1.68a2.62,2.62,0,0,1,2.75.09,13.4,13.4,0,0,0,1.42.82,2.63,2.63,0,0,1,1.45,2.33v3.38h11v-3.38a2.63,2.63,0,0,1,1.45-2.33,12.47,12.47,0,0,0,1.42-.82,2.62,2.62,0,0,1,2.75-.09l2.93,1.68,5.51-9.54L445.88,348a2.63,2.63,0,0,1-1.28-2.43c0-.27,0-.54,0-.81s0-.55,0-.82a2.63,2.63,0,0,1,1.28-2.43Zm-10.54,4.94a9,9,0,1,1-9-9A9,9,0,0,1,438.27,344.72Z" style="fill:#ebebeb"></path><path d="M143.86,195.89l-5.51-9.55L135.43,188a2.62,2.62,0,0,1-2.75-.09,15.48,15.48,0,0,0-1.42-.83,2.61,2.61,0,0,1-1.45-2.33v-3.37h-11v3.37a2.63,2.63,0,0,1-1.45,2.33,15.64,15.64,0,0,0-1.43.83,2.6,2.6,0,0,1-2.74.09l-2.92-1.69-5.51,9.55,2.93,1.69A2.62,2.62,0,0,1,109,200c0,.27,0,.54,0,.81s0,.54,0,.81a2.6,2.6,0,0,1-1.28,2.42l-2.94,1.7,5.51,9.55,2.93-1.69a2.58,2.58,0,0,1,2.74.1c.46.29.94.57,1.42.82a2.61,2.61,0,0,1,1.45,2.33v3.37h11v-3.37a2.62,2.62,0,0,1,1.44-2.33c.49-.25,1-.53,1.42-.82a2.6,2.6,0,0,1,2.75-.1l2.93,1.69,5.51-9.55-2.93-1.69a2.6,2.6,0,0,1-1.28-2.42c0-.27,0-.55,0-.82s0-.54,0-.81a2.62,2.62,0,0,1,1.28-2.43Zm-10.54,4.93a9,9,0,1,1-9-9A9,9,0,0,1,133.32,200.82Z" style="fill:#ebebeb"></path><polygon points="372.45 463.95 371.45 463.95 371.45 426.96 341.51 386.09 341.51 349.99 342.51 349.99 342.51 385.77 372.45 426.63 372.45 463.95" style="fill:#ebebeb"></polygon><path d="M342,350.54a3.16,3.16,0,1,1,3.16-3.16A3.17,3.17,0,0,1,342,350.54Zm0-5.32a2.16,2.16,0,1,0,2.16,2.16A2.16,2.16,0,0,0,342,345.22Z" style="fill:#ebebeb"></path><polygon points="364.74 463.95 363.74 463.95 363.74 431.9 333.8 391.03 333.8 370.99 334.8 370.99 334.8 390.7 364.74 431.57 364.74 463.95" style="fill:#ebebeb"></polygon><path d="M334.3,371.54a3.16,3.16,0,1,1,3.16-3.16A3.17,3.17,0,0,1,334.3,371.54Zm0-5.32a2.16,2.16,0,1,0,2.16,2.16A2.16,2.16,0,0,0,334.3,366.22Z" style="fill:#ebebeb"></path><rect x="378.88" y="381.15" width="1" height="82.8" style="fill:#ebebeb"></rect><path d="M379.38,381.65a3.16,3.16,0,1,1,3.16-3.16A3.16,3.16,0,0,1,379.38,381.65Zm0-5.32a2.16,2.16,0,1,0,2.16,2.16A2.16,2.16,0,0,0,379.38,376.33Z" style="fill:#ebebeb"></path><polygon points="387.03 463.27 386.03 463.27 386.03 439.09 406.36 400.75 406.36 322.14 407.36 322.14 407.36 401 387.03 439.34 387.03 463.27" style="fill:#ebebeb"></polygon><path d="M406.86,322.64a3.16,3.16,0,1,1,3.16-3.16A3.17,3.17,0,0,1,406.86,322.64Zm0-5.32a2.16,2.16,0,1,0,2.16,2.16A2.16,2.16,0,0,0,406.86,317.32Z" style="fill:#ebebeb"></path><polygon points="394.15 463.4 393.15 463.4 393.15 443.18 417.11 400.79 417.11 355.65 418.11 355.65 418.11 401.06 394.15 443.44 394.15 463.4" style="fill:#ebebeb"></polygon><path d="M417.61,356.16a3.17,3.17,0,1,1,3.16-3.16A3.17,3.17,0,0,1,417.61,356.16Zm0-5.33a2.17,2.17,0,1,0,2.16,2.17A2.17,2.17,0,0,0,417.61,350.83Z" style="fill:#ebebeb"></path><polygon points="128.55 463.95 127.55 463.95 127.55 356.63 157.49 315.77 157.49 279.99 158.49 279.99 158.49 316.09 158.39 316.23 128.55 356.96 128.55 463.95" style="fill:#ebebeb"></polygon><path d="M158,280.54a3.16,3.16,0,1,1,3.16-3.16A3.17,3.17,0,0,1,158,280.54Zm0-5.32a2.16,2.16,0,1,0,2.16,2.16A2.16,2.16,0,0,0,158,275.22Z" style="fill:#ebebeb"></path><polygon points="136.26 463.95 135.26 463.95 135.26 361.57 135.36 361.44 165.2 320.7 165.2 300.99 166.2 300.99 166.2 321.03 166.1 321.16 136.26 361.9 136.26 463.95" style="fill:#ebebeb"></polygon><path d="M165.7,301.54a3.16,3.16,0,1,1,3.16-3.16A3.17,3.17,0,0,1,165.7,301.54Zm0-5.32a2.16,2.16,0,1,0,2.16,2.16A2.16,2.16,0,0,0,165.7,296.22Z" style="fill:#ebebeb"></path><rect x="120.12" y="231.15" width="1" height="232.8" style="fill:#ebebeb"></rect><path d="M120.62,231.65a3.16,3.16,0,1,1,3.16-3.16A3.16,3.16,0,0,1,120.62,231.65Zm0-5.32a2.16,2.16,0,1,0,2.16,2.16A2.16,2.16,0,0,0,120.62,226.33Z" style="fill:#ebebeb"></path><polygon points="113.97 463.27 112.97 463.27 112.97 369.34 92.64 331 92.64 262.14 93.64 262.14 93.64 330.75 113.97 369.09 113.97 463.27" style="fill:#ebebeb"></polygon><path d="M93.14,262.64a3.16,3.16,0,1,1,3.16-3.16A3.17,3.17,0,0,1,93.14,262.64Zm0-5.32a2.16,2.16,0,1,0,2.16,2.16A2.16,2.16,0,0,0,93.14,257.32Z" style="fill:#ebebeb"></path><polygon points="106.86 463.4 105.86 463.4 105.86 373.44 81.89 331.06 81.89 295.65 82.89 295.65 82.89 330.79 106.86 373.18 106.86 463.4" style="fill:#ebebeb"></polygon><path d="M82.39,296.16A3.17,3.17,0,1,1,85.55,293,3.17,3.17,0,0,1,82.39,296.16Zm0-5.33A2.17,2.17,0,1,0,84.55,293,2.17,2.17,0,0,0,82.39,290.83Z" style="fill:#ebebeb"></path></g><g id="freepik--Arrow--inject-258"><polygon points="202.22 114.83 202.22 123.55 225.98 123.55 225.98 126.6 184.62 126.6 184.62 134 225.98 134 225.98 166.71 190.87 166.71 190.87 175.43 225.98 175.43 225.98 187.72 133.56 187.72 133.56 161.14 161.94 161.14 161.94 152.05 133.56 152.05 133.56 143.33 145.05 143.33 145.05 137.06 133.56 137.06 133.56 111.77 225.98 111.77 225.98 114.83 202.22 114.83" style="fill:#F0F0F0"></polygon><polygon points="224.47 114.83 224.47 111.77 289 111.77 289 114.81 227.51 114.81 227.51 114.83 224.47 114.83" style="fill:#F0F0F0"></polygon><rect x="224.47" y="123.55" width="3.04" height="3.05" style="fill:#F0F0F0"></rect><rect x="224.47" y="134" width="3.04" height="32.71" style="fill:#F0F0F0"></rect><polygon points="329.73 203.74 325.69 206.07 287.49 228.13 287.49 187.74 224.47 187.74 224.47 175.43 227.51 175.43 227.51 184.7 290.52 184.7 290.52 222.87 324.18 203.44 328.21 201.11 329.73 203.74" style="fill:#F0F0F0"></polygon><polygon points="337.38 199.32 337.38 181.78 340.42 181.78 340.42 194.06 384.05 168.86 385.57 171.49 337.38 199.32" style="fill:#F0F0F0"></polygon><polygon points="397.51 138.42 290.52 76.64 290.52 98.8 310.1 98.8 310.1 101.84 287.49 101.84 287.49 71.38 399.03 135.79 397.51 138.42" style="fill:#F0F0F0"></polygon><polygon points="359.52 126.43 357.96 129.04 353.98 126.64 332.5 113.73 302.37 113.73 302.37 126.59 225.99 126.59 225.99 123.55 299.33 123.55 299.33 110.7 333.34 110.7 355.53 124.04 359.52 126.43" style="fill:#F0F0F0"></polygon><polygon points="295.77 178.49 223.18 178.49 223.18 175.46 294.56 175.46 324.21 147.33 420.18 148.24 420.15 151.27 325.41 150.38 295.77 178.49" style="fill:#F0F0F0"></polygon><path d="M363.64,127.74a4.9,4.9,0,1,1-4.9-4.9A4.9,4.9,0,0,1,363.64,127.74Z" style="fill:#F0F0F0"></path><circle cx="333.86" cy="126.6" r="4.9" style="fill:#F0F0F0"></circle><path d="M385.85,138.48a4.9,4.9,0,1,1-4.9-4.89A4.9,4.9,0,0,1,385.85,138.48Z" style="fill:#F0F0F0"></path><path d="M406.65,139.32a4.9,4.9,0,1,1-4.9-4.89A4.9,4.9,0,0,1,406.65,139.32Z" style="fill:#F0F0F0"></path><path d="M333.86,202.42a4.9,4.9,0,1,1-4.89-4.89A4.89,4.89,0,0,1,333.86,202.42Z" style="fill:#F0F0F0"></path><path d="M307.14,202.86a4.9,4.9,0,1,1-4.89-4.9A4.89,4.89,0,0,1,307.14,202.86Z" style="fill:#F0F0F0"></path><path d="M406.65,159.25a4.9,4.9,0,1,1-4.9-4.89A4.9,4.9,0,0,1,406.65,159.25Z" style="fill:#F0F0F0"></path><path d="M343.8,181.87a4.9,4.9,0,1,1-4.9-4.89A4.9,4.9,0,0,1,343.8,181.87Z" style="fill:#F0F0F0"></path><path d="M390.75,169.4a4.9,4.9,0,1,1-4.9-4.9A4.9,4.9,0,0,1,390.75,169.4Z" style="fill:#F0F0F0"></path><path d="M425.07,149.75a4.9,4.9,0,1,1-4.9-4.89A4.9,4.9,0,0,1,425.07,149.75Z" style="fill:#F0F0F0"></path><path d="M293.9,113.3a4.9,4.9,0,1,1-4.89-4.9A4.89,4.89,0,0,1,293.9,113.3Z" style="fill:#F0F0F0"></path><circle cx="285.22" cy="145.05" r="4.9" style="fill:#F0F0F0"></circle><path d="M315,100.66a4.9,4.9,0,1,1-4.89-4.9A4.89,4.89,0,0,1,315,100.66Z" style="fill:#F0F0F0"></path><polygon points="309.16 137.06 225.99 137.06 225.99 134.02 307.91 134.02 316.5 125.43 332.68 125.43 332.68 128.47 317.75 128.47 309.16 137.06" style="fill:#F0F0F0"></polygon><polygon points="376.91 136.97 376.91 140.01 317.94 140.01 291.22 166.71 224.42 166.71 224.42 163.67 289.97 163.67 316.67 136.97 376.91 136.97" style="fill:#F0F0F0"></polygon><rect x="64.93" y="129.66" width="68.63" height="7.4" style="fill:#F0F0F0"></rect><rect x="102.61" y="180.33" width="30.95" height="7.4" style="fill:#F0F0F0"></rect><rect x="113.7" y="111.77" width="19.87" height="7.4" style="fill:#F0F0F0"></rect><rect x="100" y="111.77" width="7.4" height="7.4" style="fill:#F0F0F0"></rect><rect x="88.74" y="180.33" width="7.4" height="7.4" style="fill:#F0F0F0"></rect><rect x="122.71" y="161.14" width="39.23" height="8.72" style="fill:#F0F0F0"></rect><rect x="106.26" y="143.34" width="27.3" height="8.71" style="fill:#F0F0F0"></rect><rect x="91.07" y="143.34" width="8.71" height="8.71" style="fill:#F0F0F0"></rect><rect x="226.3" y="143.34" width="56.66" height="3.04" style="fill:#F0F0F0"></rect><path d="M235,154.65a4.9,4.9,0,1,1,4.9,4.9A4.9,4.9,0,0,1,235,154.65Z" style="fill:#F0F0F0"></path><rect x="244" y="153.33" width="56.66" height="3.04" style="fill:#F0F0F0"></rect><polygon points="304.69 187.71 294.56 177.58 296.71 175.44 304.69 183.41 330.36 157.73 401.75 157.73 401.75 160.77 331.62 160.77 304.69 187.71" style="fill:#F0F0F0"></polygon><polygon points="303.32 203.94 301.17 201.79 336.22 166.74 359.15 166.74 370.43 178.03 368.28 180.17 357.89 169.78 337.48 169.78 303.32 203.94" style="fill:#F0F0F0"></polygon></g><g id="freepik--Cloud--inject-258"><path d="M336.53,293.14a16.42,16.42,0,0,0,15.21,16.38v.05h93.05a19.31,19.31,0,0,0,1.8-38.54,32.53,32.53,0,0,0-63-10.17,19,19,0,0,0-8.64-2.05,19.31,19.31,0,0,0-19.27,18.12,15.69,15.69,0,0,0-2.67-.22A16.44,16.44,0,0,0,336.53,293.14Z" style="fill:#F0F0F0"></path><path d="M336.53,293.14a16.42,16.42,0,0,0,15.21,16.38v.05h93.05a19.31,19.31,0,0,0,1.8-38.54,32.53,32.53,0,0,0-63-10.17,19,19,0,0,0-8.64-2.05,19.31,19.31,0,0,0-19.27,18.12,15.69,15.69,0,0,0-2.67-.22A16.44,16.44,0,0,0,336.53,293.14Z" style="opacity:0.1"></path><path d="M327.6,293.14a16.42,16.42,0,0,0,15.21,16.38v.05h93.05A19.31,19.31,0,0,0,437.67,271a32.54,32.54,0,0,0-63.06-10.17,19,19,0,0,0-8.63-2.05,19.31,19.31,0,0,0-19.28,18.12,15.6,15.6,0,0,0-2.67-.22A16.44,16.44,0,0,0,327.6,293.14Z" style="fill:#F0F0F0"></path><polygon points="389.16 309.57 387.83 309.57 371.4 287.14 371.4 274.5 372.45 274.5 372.45 286.79 389.16 309.57" style="fill:#fff"></polygon><path d="M371.92,271a2,2,0,0,0-.52,4,1.82,1.82,0,0,0,.52.08,1.78,1.78,0,0,0,.53-.08,2,2,0,0,0-.53-4Zm0,3a1,1,0,0,1,0-1.93,1,1,0,1,1,0,1.93Z" style="fill:#fff"></path><polygon points="381.73 309.57 380.43 309.57 366.02 289.9 366.02 286.28 367.07 286.28 367.07 289.55 381.73 309.57" style="fill:#fff"></polygon><path d="M366.55,282.79a2,2,0,0,0-2,2,2,2,0,0,0,1.5,1.94,1.84,1.84,0,0,0,.53.08,1.77,1.77,0,0,0,.52-.08,2,2,0,0,0,1.49-1.94A2,2,0,0,0,366.55,282.79Zm0,3a1,1,0,1,1,1-1A1,1,0,0,1,366.55,285.78Z" style="fill:#fff"></path><rect x="393.41" y="260.39" width="1.05" height="49.18" style="fill:#fff"></rect><path d="M393.93,256.88a2,2,0,0,0-.52,4,1.82,1.82,0,0,0,.52.08,1.78,1.78,0,0,0,.53-.08,2,2,0,0,0-.53-4Zm0,3a1,1,0,0,1,0-1.92,1,1,0,1,1,0,1.92Z" style="fill:#fff"></path><polygon points="410.92 275.42 410.92 287.74 401.13 306.22 401.13 309.57 400.07 309.57 400.07 305.96 409.87 287.49 409.87 275.42 410.92 275.42" style="fill:#fff"></polygon><path d="M410.39,271.91a2,2,0,0,0-.52,4,1.72,1.72,0,0,0,.52.08,1.89,1.89,0,0,0,.53-.08,2,2,0,0,0-.53-4Zm0,3a1,1,0,0,1,0-1.94,1,1,0,0,1,0,1.94Z" style="fill:#fff"></path><polygon points="418.01 283 418.01 287.78 408.67 304.3 408.67 309.57 407.62 309.57 407.62 304.02 416.94 287.5 416.94 283 418.01 283" style="fill:#fff"></polygon><path d="M417.47,279.49a2,2,0,0,0-.53,4,1.84,1.84,0,0,0,.53.08,2,2,0,0,0,.54-.08,2,2,0,0,0-.54-4Zm0,3a1,1,0,1,1,1-1A1,1,0,0,1,417.47,282.48Z" style="fill:#fff"></path></g></svg>
